<?xml version="1.0" encoding="UTF-8" standalone="no"?>
<!-- Created with Inkscape (http://www.inkscape.org/) -->

<svg
   width="200mm"
   height="200mm"
   viewBox="0 0 200 200"
   version="1.1"
   id="svg856"
   inkscape:version="1.1 (c68e22c387, 2021-05-23)"
   sodipodi:docname="sun_and_moon.svg"
   xmlns:inkscape="http://www.inkscape.org/namespaces/inkscape"
   xmlns:sodipodi="http://sodipodi.sourceforge.net/DTD/sodipodi-0.dtd"
   xmlns="http://www.w3.org/2000/svg"
   xmlns:svg="http://www.w3.org/2000/svg">
  <sodipodi:namedview
     id="namedview858"
     pagecolor="#505050"
     bordercolor="#ffffff"
     borderopacity="1"
     inkscape:pageshadow="0"
     inkscape:pageopacity="0"
     inkscape:pagecheckerboard="1"
     inkscape:document-units="mm"
     showgrid="false"
     inkscape:snap-others="true"
     inkscape:snap-intersection-paths="false"
     inkscape:snap-bbox="true"
     inkscape:zoom="1"
     inkscape:cx="89"
     inkscape:cy="418.5"
     inkscape:window-width="2560"
     inkscape:window-height="1361"
     inkscape:window-x="1791"
     inkscape:window-y="529"
     inkscape:window-maximized="1"
     inkscape:current-layer="layer2"
     inkscape:object-nodes="false"
     inkscape:snap-object-midpoints="true"
     inkscape:object-paths="false"
     inkscape:snap-midpoints="true"
     inkscape:snap-bbox-edge-midpoints="true"
     scale-x="1.1"
     lock-margins="false"
     inkscape:snap-smooth-nodes="true" />
  <defs
     id="defs853">
    <inkscape:path-effect
       effect="copy_rotate"
       starting_point="108.37746,100"
       origin="100,100"
       id="path-effect6439"
       is_visible="true"
       lpeversion="1"
       method="normal"
       num_copies="8"
       starting_angle="0"
       rotation_angle="60"
       gap="-0.01"
       copies_to_360="true"
       mirror_copies="false"
       split_items="false" />
    <inkscape:path-effect
       effect="copy_rotate"
       starting_point="6.5192942,63.596294"
       origin="105,148.5"
       id="path-effect5040"
       is_visible="false"
       lpeversion="1"
       method="normal"
       num_copies="8"
       starting_angle="0"
       rotation_angle="45"
       gap="0.38"
       copies_to_360="true"
       mirror_copies="false"
       split_items="false" />
    <inkscape:path-effect
       effect="copy_rotate"
       starting_point="6.5192942,63.596294"
       origin="105,148.5"
       id="path-effect4952"
       is_visible="true"
       lpeversion="1"
       method="normal"
       num_copies="8"
       starting_angle="0"
       rotation_angle="45"
       gap="0.38"
       copies_to_360="true"
       mirror_copies="false"
       split_items="false" />
    <inkscape:path-effect
       effect="copy_rotate"
       starting_point="6.5192942,63.596294"
       origin="105,148.5"
       id="path-effect4728"
       is_visible="false"
       lpeversion="1"
       method="normal"
       num_copies="8"
       starting_angle="0"
       rotation_angle="45"
       gap="0.38"
       copies_to_360="true"
       mirror_copies="false"
       split_items="false" />
  </defs>
  <g
     inkscape:label="Sun"
     inkscape:groupmode="layer"
     id="layer1"
     style="display:inline">
    <circle
       style="fill:#000000;fill-opacity:1;stroke-width:1;stroke-linecap:round;stroke-miterlimit:0.9;stroke-dasharray:0, 11;stroke-dashoffset:10"
       id="sun"
       cy="100"
       cx="100"
       r="30.795788" />
  </g>
  <g
     inkscape:groupmode="layer"
     id="layer2"
     inkscape:label="Moon"
     style="display:inline">
    <path
       id="moon"
       style="fill:#000000;fill-opacity:1;stroke-width:1;stroke-linecap:round;stroke-miterlimit:0.9;stroke-dasharray:0, 11;stroke-dashoffset:10"
       d="m 120.53966,122.95516 a 30.795792,30.795792 0 0 0 10.2526,-23.411639 24.25401,24.25401 0 0 1 -0.43526,1.509869 24.25401,24.25401 0 0 1 -0.63129,1.7004 24.25401,24.25401 0 0 1 -0.75625,1.64839 24.25401,24.25401 0 0 1 -0.87714,1.5874 24.25401,24.25401 0 0 1 -0.99404,1.5174 24.25401,24.25401 0 0 1 -1.10439,1.43894 24.25401,24.25401 0 0 1 -1.20869,1.35222 24.25401,24.25401 0 0 1 -1.30611,1.25822 24.25401,24.25401 0 0 1 -0.47056,0.41106 24.25401,24.25401 0 0 1 -0.48239,0.3963 24.25401,24.25401 0 0 1 -0.49143,0.38546 24.25401,24.25401 0 0 1 -0.50127,0.37292 24.25401,24.25401 0 0 1 -0.51078,0.35931 24.25401,24.25401 0 0 1 -0.51979,0.34616 24.25401,24.25401 0 0 1 -0.52865,0.33255 24.25401,24.25401 0 0 1 -0.53694,0.31874 24.25401,24.25401 0 0 1 -0.54506,0.30519 24.25401,24.25401 0 0 1 -0.55243,0.2909 24.25401,24.25401 0 0 1 -0.56052,0.27659 24.25401,24.25401 0 0 1 -0.56663,0.26224 24.25401,24.25401 0 0 1 -0.57327,0.24731 24.25401,24.25401 0 0 1 -0.57955,0.23275 24.25401,24.25401 0 0 1 -0.58546,0.21714 24.25401,24.25401 0 0 1 -0.59085,0.20288 24.25401,24.25401 0 0 1 -0.59581,0.18678 24.25401,24.25401 0 0 1 -0.60023,0.1721 24.25401,24.25401 0 0 1 -0.60503,0.15622 24.25401,24.25401 0 0 1 -0.60838,0.14044 24.25401,24.25401 0 0 1 -0.61211,0.12501 24.25401,24.25401 0 0 1 -0.61476,0.10925 24.25401,24.25401 0 0 1 -0.61779,0.0931 24.25401,24.25401 0 0 1 -0.61935,0.0771 24.25401,24.25401 0 0 1 -0.62167,0.0618 24.25401,24.25401 0 0 1 -0.62282,0.0447 24.25401,24.25401 0 0 1 -0.62376,0.0294 24.25401,24.25401 0 0 1 -0.62463,0.0134 24.25401,24.25401 0 0 1 -0.62439,-0.003 24.25401,24.25401 0 0 1 -0.62421,-0.0191 24.25401,24.25401 0 0 1 -0.62365,-0.0351 24.25401,24.25401 0 0 1 -0.62244,-0.051 24.25401,24.25401 0 0 1 -0.6208,-0.0671 24.25401,24.25401 0 0 1 -0.61917,-0.0834 24.25401,24.25401 0 0 1 -0.61689,-0.0988 24.25401,24.25401 0 0 1 -0.61384,-0.11494 24.25401,24.25401 0 0 1 -0.6105,-0.1307 24.25401,24.25401 0 0 1 -0.60712,-0.14644 24.25401,24.25401 0 0 1 -0.60312,-0.16145 24.25401,24.25401 0 0 1 -0.59903,-0.17717 24.25401,24.25401 0 0 1 -0.593848,-0.19318 24.25401,24.25401 0 0 1 -0.58878,-0.20774 24.25401,24.25401 0 0 1 -0.58374,-0.22307 24.25401,24.25401 0 0 1 -0.57753,-0.23795 24.25401,24.25401 0 0 1 -0.57073,-0.25275 24.25401,24.25401 0 0 1 -0.56477,-0.26749 24.25401,24.25401 0 0 1 -0.55701,-0.28177 24.25401,24.25401 0 0 1 -0.54982,-0.29627 24.25401,24.25401 0 0 1 -0.54246,-0.31023 24.25401,24.25401 0 0 1 -0.53402,-0.32374 24.25401,24.25401 0 0 1 -0.52527,-0.33767 24.25401,24.25401 0 0 1 -0.516531,-0.35085 24.25401,24.25401 0 0 1 -0.507392,-0.36436 24.25401,24.25401 0 0 1 -0.497363,-0.37734 24.25401,24.25401 0 0 1 -0.487841,-0.38986 24.25401,24.25401 0 0 1 -0.477886,-0.40216 24.25401,24.25401 0 0 1 -0.467141,-0.41505 24.25401,24.25401 0 0 1 -0.456112,-0.42627 24.25401,24.25401 0 0 1 -0.445635,-0.43766 24.25401,24.25401 0 0 1 -0.435251,-0.44825 24.25401,24.25401 0 0 1 -0.421191,-0.46088 24.25401,24.25401 0 0 1 -1.156784,-1.39669 24.25401,24.25401 0 0 1 -1.049617,-1.47977 24.25401,24.25401 0 0 1 -0.935787,-1.55329 24.25401,24.25401 0 0 1 -0.817638,-1.6193 24.25401,24.25401 0 0 1 -0.693651,-1.67572 24.25401,24.25401 0 0 1 -0.567014,-1.72318 24.25401,24.25401 0 0 1 -0.436311,-1.760093 24.25401,24.25401 0 0 1 -0.303993,-1.78842 24.25401,24.25401 0 0 1 -0.169099,-1.805664 24.25401,24.25401 0 0 1 -0.03335,-1.813576 24.25401,24.25401 0 0 1 0.101467,-1.81062 24.25401,24.25401 0 0 1 0.237154,-1.798399 24.25401,24.25401 0 0 1 0.370164,-1.775686 24.25401,24.25401 0 0 1 0.502215,-1.742729 24.25401,24.25401 0 0 1 0.631266,-1.7004 24.25401,24.25401 0 0 1 0.756622,-1.648734 24.25401,24.25401 0 0 1 0.877152,-1.587393 24.25401,24.25401 0 0 1 0.994056,-1.517447 24.25401,24.25401 0 0 1 1.104028,-1.438584 24.25401,24.25401 0 0 1 1.208528,-1.352407 24.25401,24.25401 0 0 1 1.306542,-1.258474 24.25401,24.25401 0 0 1 1.396659,-1.156883 24.25401,24.25401 0 0 1 1.479382,-1.049285 24.25401,24.25401 0 0 1 1.55367,-0.936115 24.25401,24.25401 0 0 1 1.61929,-0.817625 24.25401,24.25401 0 0 1 1.67573,-0.693654 24.25401,24.25401 0 0 1 1.72279,-0.566661 24.25401,24.25401 0 0 1 1.76046,-0.436658 24.25401,24.25401 0 0 1 1.54984,-0.26322 30.795792,30.795792 0 0 0 -24.414555,7.562751 30.795792,30.795792 0 0 0 -2.444937,43.483146 30.795792,30.795792 0 0 0 43.482782,2.44527 z" />
  </g>
  <g
     inkscape:groupmode="layer"
     id="layer4"
     inkscape:label="Rays">
    <path
       id="rays"
       style="fill:#000000;fill-opacity:1;stroke-width:3.77953;stroke-linecap:round;stroke-miterlimit:0.9;stroke-dasharray:0, 41.5749;stroke-dashoffset:37.7953"
       d="m 99.999997,14 c -4.626772,-7.1e-5 -8.377528,3.750688 -8.377455,8.37746 v 29.25803 c 8.7e-5,4.626659 3.750796,8.377241 8.377455,8.37717 4.626663,7.5e-5 8.377373,-3.750508 8.377463,-8.37717 V 22.37746 C 108.37753,17.750685 104.62677,13.999925 99.999997,14 Z M 39.188815,39.188819 c -3.271672,3.271572 -3.271671,8.575944 3e-6,11.847514 L 59.87737,71.724884 c 3.271603,3.271481 8.575817,3.27139 11.847309,-2.01e-4 3.271596,-3.271491 3.271689,-8.57571 2.07e-4,-11.847315 L 51.036334,39.188817 c -3.271572,-3.271676 -8.575949,-3.271675 -11.847519,2e-6 z M 14,100 c -7.1e-5,4.62677 3.750688,8.37753 8.37746,8.37746 h 29.25803 c 4.626659,-9e-5 8.377241,-3.7508 8.37717,-8.37746 7.5e-5,-4.626659 -3.750508,-8.377373 -8.37717,-8.37746 H 22.37746 C 17.750685,91.622467 13.999925,95.373228 14,100 Z m 25.188819,60.81119 c 3.271572,3.27167 8.575944,3.27167 11.847514,-1e-5 l 20.688551,-20.68855 c 3.271481,-3.2716 3.27139,-8.57582 -2.01e-4,-11.84731 -3.271491,-3.2716 -8.57571,-3.27169 -11.847315,-2.1e-4 l -20.688551,20.68856 c -3.271676,3.27157 -3.271675,8.57594 2e-6,11.84752 z M 100,186 c 4.62677,7e-5 8.37753,-3.75069 8.37746,-8.37746 v -29.25803 c -9e-5,-4.62666 -3.7508,-8.37724 -8.37746,-8.37717 -4.626659,-8e-5 -8.377373,3.75051 -8.37746,8.37717 v 29.25803 C 91.622467,182.24932 95.373228,186.00008 100,186 Z m 60.81119,-25.18882 c 3.27167,-3.27157 3.27167,-8.57594 -1e-5,-11.84751 l -20.68855,-20.68855 c -3.2716,-3.27148 -8.57582,-3.27139 -11.84731,2e-4 -3.2716,3.27149 -3.27169,8.57571 -2.1e-4,11.84731 l 20.68856,20.68855 c 3.27157,3.27168 8.57594,3.27168 11.84752,0 z M 186,99.999997 c 7e-5,-4.626772 -3.75069,-8.377528 -8.37746,-8.377455 h -29.25803 c -4.62666,8.7e-5 -8.37724,3.750796 -8.37717,8.377455 -8e-5,4.626663 3.75051,8.377373 8.37717,8.377463 h 29.25803 c 4.62678,7e-5 8.37754,-3.75069 8.37746,-8.377463 z M 160.81118,39.188815 c -3.27157,-3.271672 -8.57594,-3.271671 -11.84751,3e-6 L 128.27512,59.87737 c -3.27148,3.271603 -3.27139,8.575817 2e-4,11.847309 3.27149,3.271596 8.57571,3.271689 11.84731,2.07e-4 l 20.68855,-20.688552 c 3.27168,-3.271572 3.27168,-8.575949 0,-11.847519 z"
       inkscape:path-effect="#path-effect6439"
       inkscape:original-d="m 99.999997,14 a 8.3773267,8.3773272 0 0 0 -8.377455,8.37746 v 29.25803 a 8.3773272,8.3773272 0 0 0 8.377455,8.37717 8.3773272,8.3773272 0 0 0 8.377463,-8.37717 V 22.37746 A 8.3773267,8.3773272 0 0 0 99.999997,14 Z" />
  </g>
</svg>
